<svg version="1.2" xmlns="http://www.w3.org/2000/svg" viewBox="0 0 226 226" width="226" height="226">
	<title>logo-svg-sqr-svg</title>
	<style>
		.s0 { fill: #4831d4 } 
		.s1 { fill: #ccf381 } 
	</style>
	<g>
		<path class="s0" d="m113.7 213.7c-55.7 0-100.7-45-100.7-100.7 0-55.7 45-100.7 100.7-100.7 55.8 0 100.8 45 100.8 100.7 0 55.7-45 100.7-100.8 100.7z"/>
		<path class="s1" d="m64 158.3q-8.8 0-15.8-3.1-6.9-3.1-10.8-8.6-4-5.6-4.1-12.8h12.3q0.7 6.2 5.2 10.5 4.5 4.2 13.2 4.2 8.2 0 13-4.1 4.8-4.1 4.8-10.6 0-5.1-2.8-8.3-2.8-3.1-7-4.8-4.2-1.7-11.4-3.6-8.7-2.3-14-4.6-5.3-2.2-9-7.1-3.8-4.9-3.8-13.2 0-7.2 3.7-12.8 3.7-5.6 10.4-8.7 6.7-3 15.3-3 12.5 0 20.4 6.2 8 6.2 9 16.5h-12.7q-0.7-5.1-5.4-8.9-4.7-3.9-12.4-3.9-7.3 0-11.9 3.7-4.6 3.8-4.6 10.5 0 4.9 2.8 7.9 2.7 3.1 6.7 4.7 4 1.5 11.3 3.6 8.7 2.4 14.1 4.7 5.3 2.4 9.1 7.3 3.9 4.9 3.9 13.3 0 6.5-3.5 12.2-3.4 5.7-10.1 9.3-6.8 3.5-15.9 3.5zm127.5-63.8h-13.8q-3.7-7.8-10.7-12-7-4.3-16.3-4.3-9.3 0-16.7 4.3-7.5 4.2-11.7 12.2-4.3 7.9-4.3 18.4 0 10.4 4.3 18.3 4.2 7.9 11.7 12.1 7.4 4.3 16.7 4.3 13 0 21.4-7.8 8.4-7.7 9.8-21h-35.4v-9.4h47.7v8.9q-1 11-6.9 20.1-5.8 9.1-15.4 14.3-9.5 5.3-21.2 5.3-12.3 0-22.5-5.8-10.2-5.8-16.1-16.1-5.9-10.3-5.9-23.2 0-13 5.9-23.4 5.9-10.3 16.1-16.1 10.2-5.8 22.5-5.8 14.1 0 25 7 10.9 7 15.8 19.7z"/>
	</g>
</svg>